<svg xmlns="http://www.w3.org/2000/svg" width="25" height="24" viewBox="0 0 25 24" fill="none">
  <path d="M4.54224 9C4.54224 6.17157 4.54224 4.75736 5.42092 3.87868C6.2996 3 7.71381 3 10.5422 3H14.5422C17.3707 3 18.7849 3 19.6636 3.87868C20.5422 4.75736 20.5422 6.17157 20.5422 9V15.8276C20.5422 18.5109 20.5422 19.8525 19.6979 20.2629C18.8536 20.6733 17.7987 19.8444 15.6888 18.1866L15.0135 17.656C13.8271 16.7239 13.234 16.2578 12.5422 16.2578C11.8505 16.2578 11.2573 16.7239 10.0709 17.656L9.3957 18.1866C7.28578 19.8444 6.23082 20.6733 5.38653 20.2629C4.54224 19.8525 4.54224 18.5109 4.54224 15.8276V9Z" stroke="#7A7A7A" stroke-width="1.5"/>
</svg>