<svg xmlns="http://www.w3.org/2000/svg" width="25" height="24" viewBox="0 0 25 24" fill="none">
  <path d="M5.54224 17H9.54224C11.1991 17 12.5422 18.3431 12.5422 20V10C12.5422 7.17157 12.5422 5.75736 11.6636 4.87868C10.7849 4 9.37066 4 6.54224 4H5.54224C4.59943 4 4.12802 4 3.83513 4.29289C3.54224 4.58579 3.54224 5.05719 3.54224 6V15C3.54224 15.9428 3.54224 16.4142 3.83513 16.7071C4.12802 17 4.59943 17 5.54224 17Z" stroke="#7A7A7A" stroke-width="1.5"/>
  <path d="M19.5422 17H15.5422C13.8854 17 12.5422 18.3431 12.5422 20V10C12.5422 7.17157 12.5422 5.75736 13.4209 4.87868C14.2996 4 15.7138 4 18.5422 4H19.5422C20.485 4 20.9564 4 21.2493 4.29289C21.5422 4.58579 21.5422 5.05719 21.5422 6V15C21.5422 15.9428 21.5422 16.4142 21.2493 16.7071C20.9564 17 20.485 17 19.5422 17Z" stroke="#7A7A7A" stroke-width="1.5"/>
</svg>