<svg xmlns="http://www.w3.org/2000/svg" width="20" height="20" viewBox="0 0 20 20" fill="none">
  <path d="M14.8334 17.7886L14.8332 17.7885L10.2499 15.1452L10.0001 15.0011L9.75028 15.1452L5.16695 17.7885L5.16675 17.7886C5.11607 17.8179 5.05859 17.8333 5.00008 17.8333C4.94157 17.8333 4.88409 17.8179 4.83342 17.7886C4.78275 17.7594 4.74067 17.7173 4.71141 17.6666C4.68215 17.6159 4.66675 17.5585 4.66675 17.4999V4.1669C4.66734 3.63658 4.87827 3.12814 5.25327 2.75314C5.62826 2.37815 6.1367 2.16722 6.66702 2.16663H13.3331C13.8635 2.16722 14.3719 2.37815 14.7469 2.75314C15.1219 3.12819 15.3329 3.63672 15.3334 4.16713V17.5C15.3334 17.5884 15.2983 17.6731 15.2358 17.7357C15.1733 17.7982 15.0885 17.8333 15.0001 17.8333C14.9416 17.8333 14.8841 17.8179 14.8334 17.7886Z" stroke="#7540EE"/>
</svg>