<svg xmlns="http://www.w3.org/2000/svg" width="25" height="24" viewBox="0 0 25 24" fill="none">
  <path d="M10.686 6.62753C11.4726 4.66653 11.8659 3.68604 12.5422 3.68604C13.2185 3.68604 13.6118 4.66653 14.3984 6.62753L14.4351 6.71885C14.8795 7.82672 15.1017 8.38065 15.5545 8.71734C16.0074 9.05403 16.6018 9.10727 17.7907 9.21374L18.0057 9.23299C19.9515 9.40726 20.9244 9.49439 21.1326 10.1134C21.3407 10.7324 20.6182 11.3897 19.1732 12.7044L18.6909 13.1432C17.9594 13.8087 17.5936 14.1414 17.4232 14.5776C17.3914 14.6589 17.3649 14.7423 17.344 14.8271C17.232 15.2817 17.3391 15.7645 17.5533 16.7299L17.62 17.0305C18.0136 18.8048 18.2105 19.692 17.8668 20.0746C17.7384 20.2176 17.5715 20.3206 17.386 20.3712C16.8898 20.5066 16.1854 19.9325 14.7764 18.7844C13.8512 18.0305 13.3887 17.6536 12.8576 17.5688C12.6486 17.5354 12.4358 17.5354 12.2269 17.5688C11.6958 17.6536 11.2332 18.0305 10.308 18.7844C8.89905 19.9325 8.19457 20.5066 7.69837 20.3712C7.51296 20.3206 7.34605 20.2176 7.21762 20.0746C6.87394 19.692 7.07078 18.8048 7.46445 17.0305L7.53113 16.7299C7.74534 15.7645 7.85244 15.2817 7.74039 14.8271C7.71949 14.7423 7.69305 14.6589 7.66125 14.5776C7.49077 14.1414 7.12502 13.8087 6.39352 13.1432L5.91123 12.7044C4.46619 11.3897 3.74367 10.7324 3.95185 10.1134C4.16003 9.49439 5.13293 9.40726 7.07875 9.23299L7.29368 9.21374C8.4826 9.10727 9.07706 9.05403 9.52991 8.71734C9.98276 8.38065 10.205 7.82672 10.6493 6.71885L10.686 6.62753Z" stroke="#7A7A7A" stroke-width="1.5"/>
</svg>