<svg xmlns="http://www.w3.org/2000/svg" width="24" height="24" viewBox="0 0 24 24" fill="none">
  <path d="M9.5 14.5L9.5 11.5" stroke="#7540EE" stroke-linecap="round"/>
  <path d="M14.5 14.5L14.5 11.5" stroke="#7540EE" stroke-linecap="round"/>
  <path d="M5 6.5H19V6.5C18.1716 6.5 17.5 7.17157 17.5 8V15.5C17.5 17.3856 17.5 18.3284 16.9142 18.9142C16.3284 19.5 15.3856 19.5 13.5 19.5H10.5C8.61438 19.5 7.67157 19.5 7.08579 18.9142C6.5 18.3284 6.5 17.3856 6.5 15.5V8C6.5 7.17157 5.82843 6.5 5 6.5V6.5Z" stroke="#7540EE" stroke-linecap="round"/>
  <path d="M9 6C9 6 9.6 4 12 4C14.4 4 15 5.99952 15 5.99952" stroke="#7540EE" stroke-linecap="round"/>
</svg>